<svg data-name="Calque 1" xmlns="http://www.w3.org/2000/svg" xmlns:xlink="http://www.w3.org/1999/xlink" viewBox="0 0 340.16 102.2"><defs><linearGradient id="a" x1="145.18" y1="21.76" x2="145.18" y2="81.96" gradientUnits="userSpaceOnUse"><stop offset="0" stop-color="#d3955f"/><stop offset=".49" stop-color="#b16f2e"/><stop offset="1" stop-color="#6e4518"/></linearGradient><linearGradient id="b" x1="49.13" y1="43.38" x2="145.05" y2="43.38" xlink:href="#a"/><linearGradient id="c" x1="97.09" y1="21.76" x2="97.09" y2="81.96" xlink:href="#a"/><linearGradient id="d" x1="68.98" y1="65.15" x2="68.98" y2="132.51" xlink:href="#a"/><linearGradient id="e" x1="34.89" y1="110.01" x2="160.03" y2="110.01" xlink:href="#a"/><linearGradient id="f" x1="167.46" y1="65.15" x2="167.46" y2="132.51" xlink:href="#a"/><linearGradient id="g" x1="356.22" y1="65.15" x2="356.22" y2="132.51" xlink:href="#a"/><linearGradient id="h" x1="261.84" y1="65.15" x2="261.84" y2="132.51" xlink:href="#a"/><linearGradient id="i" x1="290.35" y1="19.77" x2="290.52" y2="19.77" xlink:href="#a"/><linearGradient id="j" x1="280.15" y1="49.61" x2="382.68" y2="49.61" xlink:href="#a"/><linearGradient id="k" x1="163.42" y1="43.38" x2="259.34" y2="43.38" xlink:href="#a"/><linearGradient id="l" x1="163.27" y1="21.76" x2="163.27" y2="81.96" xlink:href="#a"/><linearGradient id="m" x1="221.52" y1="21.76" x2="221.52" y2="81.96" xlink:href="#a"/></defs><path d="M145.92 32a12.42 12.42 0 0 0-7.23-11.3 18 18 0 0 1 13 17l-11.61.06z" transform="translate(-42.52 -19.76)" fill="url(#a)"/><path d="M138.93 66.36a6.71 6.71 0 0 0-5.36-10.73h-35.8V44.72h35.8a11.49 11.49 0 0 1 5.36 21.64zm-81.84-1.15a16.63 16.63 0 0 1-8-14.23V37.11A16.68 16.68 0 0 1 65 20.43h68.58a11.54 11.54 0 0 1 11.49 11.26l-5 4.78a6.77 6.77 0 0 0-6.52-5.13H65.84a11.94 11.94 0 0 0-11.93 11.9v13.87a11.92 11.92 0 0 0 3.18 8.1z" transform="translate(-42.52 -19.76)" fill="url(#b)"/><path d="M65.84 80.43a23.34 23.34 0 0 1-23.32-23.32V43.24A23.24 23.24 0 0 1 58.79 21a17.58 17.58 0 0 0-10.53 16.11V51a17.6 17.6 0 0 0 17.58 17.55h67.73A12.35 12.35 0 0 0 138.76 45a18.1 18.1 0 0 1-5.19 35.43z" transform="translate(-42.52 -19.76)" fill="url(#c)"/><path d="M79.23 98H50.16v-9.37h-3.41v25.48a7.87 7.87 0 0 0 7.86 7.89h24.62a12 12 0 1 0 0-23.93zm0 20.52H54.61a4.46 4.46 0 0 1-4.45-4.45v-12.62h29.07a8.56 8.56 0 1 1 0 17.11z" transform="translate(-42.52 -19.76)" fill="url(#d)"/><path d="M137 114.11a4.46 4.46 0 0 1-4.45 4.45h-28.69a4.46 4.46 0 0 1-4.46-4.45V98H96v16.07a7.87 7.87 0 0 0 7.86 7.86h28.72a7.87 7.87 0 0 0 7.86-7.86V98H137z" transform="translate(-42.52 -19.76)" fill="url(#e)"/><path d="M182.84 98h-30.77a6.84 6.84 0 0 0 0 13.67h30.78a3.43 3.43 0 0 1 0 6.85h-30.77a3.44 3.44 0 0 1-3.44-3.43h-3.4a6.85 6.85 0 0 0 6.84 6.84h30.77a6.84 6.84 0 0 0 0-13.67h-30.78a3.43 3.43 0 1 1 0-6.85h30.77a3.44 3.44 0 0 1 3.43 3.43v.42h3.41v-.42a6.85 6.85 0 0 0-6.84-6.84z" transform="translate(-42.52 -19.76)" fill="url(#f)"/><path d="M378.44 105.3v-.42A6.85 6.85 0 0 0 371.6 98h-30.77a6.84 6.84 0 0 0 0 13.67h30.78a3.43 3.43 0 1 1 0 6.85h-30.77a3.44 3.44 0 0 1-3.43-3.43H334a6.85 6.85 0 0 0 6.84 6.84h30.77a6.84 6.84 0 0 0 0-13.67h-30.78a3.43 3.43 0 0 1 0-6.85h30.77a3.44 3.44 0 0 1 3.44 3.43v.42z" transform="translate(-42.52 -19.76)" fill="url(#g)"/><path d="M321.34 98h-28.72a7.87 7.87 0 0 0-7.86 7.86v8.38a4.28 4.28 0 0 1-4.28 4.28h-35.29a6.28 6.28 0 0 1-6.27-6.27v-.58h34.2a6.84 6.84 0 1 0 0-13.67H243a7.51 7.51 0 0 0-7.49 7.5v8.74a4.28 4.28 0 0 1-4.28 4.28h-28.9a4.45 4.45 0 0 1-4.45-4.45v-12.62h25V98h-25v-9.37h-3.41v25.48a7.87 7.87 0 0 0 7.86 7.86h28.9a7.67 7.67 0 0 0 6.47-3.56 9.64 9.64 0 0 0 7.48 3.56h35.29a7.69 7.69 0 0 0 7.68-7.69v-8.38a4.46 4.46 0 0 1 4.46-4.45h28.72a4.45 4.45 0 0 1 4.45 4.45v1.71h3.41v-1.71a7.87 7.87 0 0 0-7.85-7.9zm-82.42 7.5a4.09 4.09 0 0 1 4.09-4.09h30.11a3.43 3.43 0 1 1 0 6.85h-34.2z" transform="translate(-42.52 -19.76)" fill="url(#h)"/><path d="M290.35 19.78h.17z" transform="translate(-42.52 -19.76)" fill="url(#i)"/><path d="M370 20.75a12.35 12.35 0 0 1-4.58 23.43 6.6 6.6 0 0 1-.83.06h-79.67V38a6.72 6.72 0 0 1 6.7-6.71h72.95A6.7 6.7 0 0 1 370 42a11.47 11.47 0 0 0-4.15-21.54H290.42a11.45 11.45 0 0 0-10.27 11.42v36.2l5.26 10.75V56.11h79.17A18.09 18.09 0 0 0 370 20.75z" transform="translate(-42.52 -19.76)" fill="url(#j)"/><path d="M169.55 66.36a11.48 11.48 0 0 1 5.58-21.64h79.43v-1.48a11.94 11.94 0 0 0-11.92-11.93h-67.73a6.74 6.74 0 0 0-6.57 5.37l-4.91-5.06a11.54 11.54 0 0 1 11.48-11.22h68.59a16.68 16.68 0 0 1 15.84 16.68V51a16.61 16.61 0 0 1-8 14.23 11.87 11.87 0 0 0 3.18-8.1v-1.5h-79.61a6.7 6.7 0 0 0-5.36 10.73z" transform="translate(-42.52 -19.76)" fill="url(#k)"/><path d="M156.81 37.83a18.15 18.15 0 0 1 12.91-17.15 12.37 12.37 0 0 0-7.16 11.21V32l5.69 5.86z" transform="translate(-42.52 -19.76)" fill="url(#l)"/><path d="M279.28 44.23V31.45a12.33 12.33 0 0 1 6.94-11.11 18.17 18.17 0 0 0-12.69 17.26v6.62h-7.58v-1A23.23 23.23 0 0 0 249.69 21a17.57 17.57 0 0 1 10.52 16.11V51a17.59 17.59 0 0 1-17.57 17.57h-67.73a12.36 12.36 0 0 1-12.35-12.37 12.2 12.2 0 0 1 7.27-11.2 18.1 18.1 0 0 0 5.08 35.47h67.73A23.34 23.34 0 0 0 266 57.11v-1h7.58v24.32h11.68l-5.93-12z" transform="translate(-42.52 -19.76)" fill="url(#m)"/></svg>